<?xml version="1.0" standalone="no"?>
<!DOCTYPE svg PUBLIC "-//W3C//DTD SVG 1.1//EN" "http://www.w3.org/Graphics/SVG/1.1/DTD/svg11.dtd" >
<!--
2013-9-30: Created.
-->
<svg>
<metadata>
Created by iconfont
</metadata>
<defs>

<font id="iconfont" horiz-adv-x="1024" >
  <font-face
    font-family="iconfont"
    font-weight="500"
    font-stretch="normal"
    units-per-em="1024"
    ascent="896"
    descent="-128"
  />
    <missing-glyph />
    
    <glyph glyph-name="vip" unicode="&#58973;" d="M819.51530615 229.14813715000003L819.55107425 229.36274053 819.86767947 229.90984476999995 820.00147519 229.50183477999997ZM787.56597345 245.23672868999995L787.59776732 245.42881099 787.88125437 245.91895295999996 788.00047875 245.55333392ZM625.59247498 781.5557803199999l295.33725581 0 0-45.43354625c-71.93832414-7.5773351-123.06149556-56.79557533-153.3390447-147.6666408L551.76511527-13.555780320000054l-96.5606906 0L228.02079902 616.84410687c-26.4968307 68.15363018-68.15363018 107.9015255-124.95053112 119.27812591l0 45.43354625 386.20832259 0 0-45.43354625c-83.31095159-3.79794097-109.8064567-39.76511527-79.51168632-107.91874676L563.12449573 156.84684259999995l159.02867116 459.99858988c34.05562026 79.51301062 1.86916439 119.27812591-96.56069061 119.2781259L625.59247498 781.5557803199999 625.59247498 781.5557803199999zM625.59247498 781.5557803199999"  horiz-adv-x="1024" />

    
    <glyph glyph-name="jikediancanicon26" unicode="&#59272;" d="M602.08-148.576l-178.592 0c-169.408 0-303.2 0-303.2 87.872l0 17.568c0 164.672 136.032 298.624 303.2 298.624l178.592 0c167.168 0 303.2-133.952 303.2-298.624l0-17.568C905.248-148.576 764.736-148.576 602.08-148.576zM423.456 202.816c-138.112 0-250.496-110.304-250.496-245.92l0-17.568c0-35.168 144.768-35.168 250.496-35.168l178.592 0c87.52 0 250.496 0 250.496 35.168l0 17.568c0 135.616-112.384 245.92-250.496 245.92L423.456 202.816zM503.84 273.12c-132.736 0-240.672 106.4-240.672 237.184s107.936 237.152 240.672 237.152 240.672-106.368 240.672-237.152S636.544 273.12 503.84 273.12zM315.872 510.304c0-101.696 84.32-184.48 187.968-184.48s187.968 82.752 187.968 184.48-84.32 184.448-187.968 184.448S315.872 612 315.872 510.304z"  horiz-adv-x="1024" />

    
    <glyph glyph-name="yuanbao-copy" unicode="&#58997;" d="M46.346 546.435c-8.389 44.533-9.799 116.435 109.871 81.725 129.902-48.454 544.269-70.962 725.811 7.676 113.138 40.291 131.71-23.116 119.537-72.705-10.387-27.351-130.030-360.393-268.686-409.733-28.141-10.018-389.697-15.222-431.347 1.735-122.122 49.723-246.796 346.77-255.184 391.303zM696.791 536.589c-1.463-25.293-84.202-40.923-174.165-28.636-94.777 12.948-154.211 32.166-154.196 36.416 0.383 94.994 73.809 153.851 164.606 153.483 90.797-0.368 169.238-66.418 163.756-161.263zM216.479 604.067c-68.438 20.863-113.822 32.465-143.802 20.705 0 0 16.073 4.422 45.383-2.096 23.334-5.189 55.921-25.436 89.049-36.987 120.297-41.959 133.454-44.543 146.31-47.945 276.559-73.185 309.166-67.343 445.647-19.045 38.51 16.463 96.489 44.287 138.425 71.616 21.118 13.759 38.166 27.39 46.623 39.383 0 0-14.471 10.836-40.058 11.371-5.769 0.121-12.091-0.286-18.948-1.457-31.151-5.317-37.573-9.388-63.483-19.354-39.42-15.17-117.299-29.499-169.676-35.238 38.526-133.979-270.594-74.86-323.314-32.706-0.841 1.569 3.726 29.123 3.726 29.123-40.39 3.508-123.975 12.902-155.879 22.628zM499.75 669.803c53.358-0.219 96.505-32.706 96.346-72.562-0.165-39.849-1.119-84.893-96.933-71.781-95.806 13.111-108.407 23.363-96.346 72.562 12.062 49.199 43.566 71.999 96.933 71.781zM446.647 649.706c16.147-6.377 22.906-27.569 15.104-47.337-7.811-19.766-27.223-30.625-43.371-24.258-16.14 6.377-22.905 27.578-15.094 47.344 7.803 19.766 27.222 30.625 43.363 24.25z"  horiz-adv-x="1024" />

    
    <glyph glyph-name="font29" unicode="&#59066;" d="M485.7088 51.2 555.9808 51.2 518.3488 100.5312ZM298.88 234.3936c13.3632 0 26.5472-7.6288 37.12-21.4784l88.1408-115.5584 44.8768 67.7888-71.9872 94.3616c-25.0624 32.8448-60.8256 51.6864-98.176 51.6864s-73.1136-18.816-98.176-51.6864l-121.8304-159.6928c6.7584-27.1616 30.7456-47.3856 59.6736-48.4096l123.2128 161.5104C272.3328 226.7648 285.4912 234.3936 298.88 234.3936zM947.2 115.2c0-35.3024-28.7232-64-64-64L555.9808 51.2l58.5984-76.8L883.2-25.6c63.7184 0 117.6064 42.5728 134.912 100.7616L947.2 182.2976 947.2 115.2zM434.8928-25.6 517.9648-25.6 473.472 32.6912ZM473.472 32.6912 517.9648-25.6 614.5536-25.6 555.9808 51.2 485.7088 51.2ZM342.784-25.6l50.816 76.8L140.8 51.2c-0.768 0-1.4848 0.2048-2.2528 0.2304l-50.7648-66.5856C104.1408-21.8624 122.0352-25.6 140.8-25.6L342.784-25.6zM76.8 115.2l0 537.6C76.8 688.1024 105.5232 716.8 140.8 716.8l742.4 0C918.4768 716.8 947.2 688.1024 947.2 652.8l0-331.2896 76.8-116.0448L1024 652.8C1024 730.4192 960.8448 793.6 883.2 793.6l-742.4 0C63.1552 793.6 0 730.4192 0 652.8l0-537.6c0-31.0528 10.2144-59.6736 27.3152-82.9696l51.5584 67.6096C77.6448 104.7808 76.8 109.8752 76.8 115.2zM87.7824-15.1552l50.7648 66.5856c-28.928 1.024-52.9152 21.248-59.6736 48.4096l-51.5584-67.6096C42.624 11.3152 63.4624-5.2224 87.7824-15.1552zM759.8336 521.2928c-35.0208 0-68.096-19.6096-90.7008-53.7856l-200.0896-302.3616 49.3312-64.64 214.8352 324.608c8.1408 12.3136 17.8688 19.3792 26.6752 19.3792s18.5088-7.04 26.6752-19.3792L947.2 182.2976l0 139.2128-96.64 146.0224C827.9296 501.7088 794.8544 521.2928 759.8336 521.2928zM485.7088 51.2 518.3488 100.5312 469.0176 165.1712 424.1408 97.3824 459.3664 51.2ZM459.3664 51.2 393.6 51.2 342.784-25.6 434.8928-25.6 473.472 32.6912ZM473.472 32.6912 485.7088 51.2 459.3664 51.2ZM947.2 182.2976l70.912-107.1616C1021.9008 87.8592 1024 101.2736 1024 115.2l0 90.24-76.8 116.0448L947.2 182.2976zM404.8128 368c-76.7488 0-139.2128 62.4384-139.2128 139.2128s62.4384 139.2128 139.2128 139.2128 139.2128-62.4384 139.2128-139.2128S481.5616 368 404.8128 368zM404.8128 569.6c-34.4064 0-62.4128-28.0064-62.4128-62.4128s27.9808-62.4128 62.4128-62.4128 62.4128 28.0064 62.4128 62.4128S439.2192 569.6 404.8128 569.6z"  horiz-adv-x="1024" />

    
    <glyph glyph-name="wodefenxiao" unicode="&#58906;" d="M905.5232 198.075733A418.133333 418.133333 0 0 1 546.133333 470.4256v45.7728c82.875733 16.008533 145.749333 88.951467 145.749334 176.4352 0 99.191467-80.6912 179.882667-179.882667 179.882667s-179.882667-80.6912-179.882667-179.882667c0-87.483733 62.8736-160.426667 145.783467-176.4352v-45.7728a418.269867 418.269867 0 0 1-359.867733-273.578667 134.417067 134.417067 0 0 1-103.867734-130.594133c0-74.103467 60.279467-134.382933 134.382934-134.382933s134.382933 60.279467 134.382933 134.382933c0 59.4944-39.1168 109.533867-92.808533 127.146667a349.969067 349.969067 0 0 0 287.778133 208.349866v-206.0288c-57.514667-15.223467-100.2496-67.242667-100.2496-129.467733 0-74.103467 60.279467-134.382933 134.382933-134.382933s134.417067 60.279467 134.417067 134.382933c0 62.225067-42.734933 114.244267-100.283733 129.467733v205.994667a349.866667 349.866667 0 0 0 288.290133-209.578667c-51.643733-18.7392-88.849067-67.857067-88.849067-125.883733 0-74.103467 60.279467-134.382933 134.382934-134.382933s134.417067 60.279467 134.417066 134.382933a134.621867 134.621867 0 0 1-108.885333 131.822933zM214.6304 66.218667c0-36.420267-29.661867-66.116267-66.116267-66.116267s-66.116267 29.661867-66.116266 66.116267 29.661867 66.1504 66.116266 66.1504 66.116267-29.661867 66.116267-66.1504z m185.719467 626.414933c0 61.5424 50.0736 111.616 111.616 111.616s111.616-50.0736 111.616-111.616-50.0736-111.616-111.616-111.616-111.616 50.039467-111.616 111.616z m177.800533-626.414933A66.218667 66.218667 0 0 0 512 0.1024a66.218667 66.218667 0 0 0-66.116267 66.116267A66.218667 66.218667 0 0 0 512 132.369067a66.218667 66.218667 0 0 0 66.1504-66.1504z m301.806933-66.082134a66.218667 66.218667 0 0 0-66.116266 66.116267 66.218667 66.218667 0 0 0 66.116266 66.1504 66.218667 66.218667 0 0 0 66.1504-66.1504 66.218667 66.218667 0 0 0-66.1504-66.116267z"  horiz-adv-x="1024" />

    
    <glyph glyph-name="zhanghu" unicode="&#58882;" d="M503 360c132.1 0 239.5 105.8 239.5 236 0 130.1-107.4 236-239.5 236S263.5 726.1 263.5 596 371 360 503 360z m98.7-22.7H422.3c-166.8 0-302.4-133.6-302.4-297.8v-17.7c0-85.8 133.5-85.8 302.4-85.8h179.5c162.3 0 302.4 0 302.4 85.8v17.7c-0.1 164.2-135.7 297.8-302.5 297.8z"  horiz-adv-x="1024" />

    
    <glyph glyph-name="quanbu" unicode="&#58892;" d="M84.703659 824.646905c-46.794769 0-84.682681-37.886889-84.682681-84.678588 0-46.726208 37.887912-84.635609 84.682681-84.635609 46.747697 0 84.633562 37.909401 84.633562 84.635609-0.001023 46.791699-37.888935 84.678588-84.633562 84.678588zM291.423791 795.712923c-22.544459 0-41.054021-18.485003-41.054022-41.079604v-29.293164c0-22.540366 18.509563-41.028439 41.054022-41.028438h691.499163c22.569018 0 41.055045 18.48705 41.055045 41.028438v29.293164c0 22.596647-18.486026 41.079604-41.055045 41.079604h-691.499163zM84.703659 468.656075c-46.794769 0-84.682681-37.885865-84.682681-84.656075 0-46.746674 37.887912-84.659145 84.682681-84.659145 46.747697 0 84.633562 37.912471 84.633562 84.659145-0.001023 46.77021-37.888935 84.656075-84.633562 84.656075z m165.66611-99.279121c0-22.569018 18.509563-41.057091 41.054022-41.057091h691.499163c22.569018 0 41.055045 18.489096 41.055045 41.057091v29.294187c0 22.565948-18.486026 41.052998-41.055045 41.052998h-691.499163c-22.544459 0-41.054021-18.48705-41.054022-41.052998v-29.294187zM84.703659 112.692874c-46.794769 0-84.682681-37.863353-84.682681-84.659145 0-46.746674 37.887912-84.680635 84.682681-84.680634 46.747697 0 84.633562 37.933961 84.633562 84.680634-0.001023 46.796816-37.888935 84.659145-84.633562 84.659145z m165.66611-99.305726c0-22.542412 18.509563-41.057091 41.054022-41.057092h691.499163c22.569018 0 41.055045 18.512632 41.055045 41.057092V42.702823c0 22.569018-18.486026 41.060161-41.055045 41.060162h-691.499163c-22.544459 0-41.054021-18.491143-41.054022-41.060162v-29.315675z"  horiz-adv-x="1024" />

    
    <glyph glyph-name="xingxing" unicode="&#58904;" d="M763.44888889-72.47644445000003c-12.51555555 0-25.37244445 3.072-38.22933334 9.216l-0.4551111 0.22755556c-64.62577778 32.42666667-158.72 80.32711111-197.1768889 100.01066667-37.888-18.77333333-133.34755555-66.21866667-199.33866666-98.87288889l-0.34133334-0.22755556c-12.74311111-6.03022222-25.71377778-9.10222222-38.45688888-9.10222222-19.456 0-36.864 7.50933333-49.26577778 21.04888889-9.89866667 10.92266667-21.16266667 30.72-18.09066667 63.03288889v0.34133333c8.192 75.09333333 21.73155555 179.88266667 26.39644445 214.92622223-26.39644445 29.696-111.95733333 126.17955555-163.61244445 188.18844444l-0.22755555 0.22755556c-15.92888889 19.56977778-20.25244445 44.71466667-11.71911112 67.24266666 9.32977778 24.576 32.768 42.32533333 62.69155556 47.33155556 71.56622222 13.53955555 176.128 33.67822222 211.39911111 40.50488888 18.54577778 34.01955555 76.57244445 140.40177778 115.59822223 209.80622223 7.62311111 15.01866667 30.03733333 58.48177778 65.19466666 58.48177777 5.00622222 0 10.01244445-0.91022222 14.44977778-2.84444444 17.74933333-6.59911111 33.792-24.34844445 50.40355556-55.63733333 38.57066667-69.40444445 95.91466667-176.01422222 114.23288888-210.26133333 35.04355555-6.82666667 138.24-27.07911111 208.78222222-40.61866667 29.58222222-5.00622222 52.79288889-22.64177778 62.12266667-47.104 8.64711111-22.528 4.32355555-47.78666667-11.49155555-67.35644445l-0.34133334-0.22755555c-51.2-62.12266667-135.85066667-158.94755555-161.792-188.52977778 4.55111111-34.92977778 17.97688889-139.94666667 26.16888889-215.26755555v-0.45511112c2.95822222-32.54044445-8.192-52.33777778-18.20444444-63.26044444-12.288-13.42577778-29.58222222-20.82133333-48.69688889-20.82133334z m-15.58755556 56.32c5.57511111-2.61688889 10.92266667-3.98222222 15.47377778-3.98222222 6.59911111 0 9.216 2.84444445 10.01244444 3.75466667 3.98222222 4.32355555 5.68888889 12.62933333 4.77866667 22.98311111-9.78488889 90.56711111-27.30666667 224.36977778-27.53422222 225.73511111l-1.59288889 11.83288889 7.85066667 8.87466667c1.024 1.25155555 108.20266667 122.88 168.39111111 195.92533333 4.096 5.12 5.23377778 10.80888889 3.29955556 15.92888889-2.73066667 7.168-10.80888889 12.288-22.18666667 14.22222222l-0.56888889 0.11377778c-85.78844445 16.384-220.16 42.78044445-221.52533334 43.008l-12.17422222 2.38933333-5.80266666 10.92266667c-0.68266667 1.36533333-73.84177778 137.78488889-119.808 220.72888889l-0.22755556 0.45511111c-8.76088889 16.49777778-15.36 24.576-19.11466666 28.33066667-3.75466667-3.64088889-10.12622222-11.60533333-18.31822223-27.87555556l-0.56888889-1.024c-46.53511111-82.83022222-120.60444445-219.136-121.40088888-220.50133333l-5.91644445-10.80888889-12.17422222-2.38933334c-1.36533333-0.22755555-137.216-26.51022222-224.02844445-42.89422222l-0.56888888-0.11377778c-11.49155555-1.93422222-19.91111111-7.28177778-22.64177778-14.336-1.93422222-5.00622222-0.68266667-10.46755555 3.41333333-15.58755555 60.75733333-72.93155555 169.30133333-194.44622222 170.32533333-195.69777778l7.96444445-8.98844444-1.59288889-11.94666667c-0.22755555-1.36533333-17.97688889-134.94044445-27.76177778-225.28-0.91022222-10.12622222 0.79644445-18.432 4.66488889-22.64177778 0.91022222-1.024 3.64088889-3.98222222 10.58133333-3.98222222 4.77866667 0 10.24 1.36533333 15.81511112 3.98222222 74.752 36.97777778 187.05066667 92.72888889 210.944 104.67555556l11.83288888 5.91644444 20.70755556-10.58133333c36.63644445-18.65955555 133.46133333-68.03911111 199.45244444-101.14844445zM763.44888889-72.47644445000003c-12.51555555 0-25.37244445 3.072-38.22933334 9.216l-0.4551111 0.22755556c-64.62577778 32.42666667-158.72 80.32711111-197.1768889 100.01066667-37.888-18.77333333-133.34755555-66.21866667-199.33866666-98.87288889l-0.34133334-0.22755556c-12.74311111-6.03022222-25.71377778-9.10222222-38.45688888-9.10222222-19.456 0-36.864 7.50933333-49.26577778 21.04888889-9.89866667 10.92266667-21.16266667 30.72-18.09066667 63.03288889v0.34133333c8.192 75.09333333 21.73155555 179.88266667 26.39644445 214.92622223-26.39644445 29.696-111.95733333 126.17955555-163.61244445 188.18844444l-0.22755555 0.22755556c-15.92888889 19.56977778-20.25244445 44.71466667-11.71911112 67.24266666 9.32977778 24.576 32.768 42.32533333 62.69155556 47.33155556 71.56622222 13.53955555 176.128 33.67822222 211.39911111 40.50488888 18.54577778 34.01955555 76.57244445 140.40177778 115.59822223 209.80622223 7.62311111 15.01866667 30.03733333 58.48177778 65.19466666 58.48177777 5.00622222 0 10.01244445-0.91022222 14.44977778-2.84444444 17.74933333-6.59911111 33.792-24.34844445 50.40355556-55.63733333 38.57066667-69.40444445 95.91466667-176.01422222 114.23288888-210.26133333 35.04355555-6.82666667 138.24-27.07911111 208.78222222-40.61866667 29.58222222-5.00622222 52.79288889-22.64177778 62.12266667-47.104 8.64711111-22.528 4.32355555-47.78666667-11.49155555-67.35644445l-0.34133334-0.22755555c-51.2-62.12266667-135.85066667-158.94755555-161.792-188.52977778 4.55111111-34.92977778 17.97688889-139.94666667 26.16888889-215.26755555v-0.45511112c2.95822222-32.54044445-8.192-52.33777778-18.20444444-63.26044444-12.288-13.42577778-29.58222222-20.82133333-48.69688889-20.82133334z m-15.58755556 56.32c5.57511111-2.61688889 10.92266667-3.98222222 15.47377778-3.98222222 6.59911111 0 9.216 2.84444445 10.01244444 3.75466667 3.98222222 4.32355555 5.68888889 12.62933333 4.77866667 22.98311111-9.78488889 90.56711111-27.30666667 224.36977778-27.53422222 225.73511111l-1.59288889 11.83288889 7.85066667 8.87466667c1.024 1.25155555 108.20266667 122.88 168.39111111 195.92533333 4.096 5.12 5.23377778 10.80888889 3.29955556 15.92888889-2.73066667 7.168-10.80888889 12.288-22.18666667 14.22222222l-0.56888889 0.11377778c-85.78844445 16.384-220.16 42.78044445-221.52533334 43.008l-12.17422222 2.38933333-5.80266666 10.92266667c-0.68266667 1.36533333-73.84177778 137.78488889-119.808 220.72888889l-0.22755556 0.45511111c-8.76088889 16.49777778-15.36 24.576-19.11466666 28.33066667-3.75466667-3.64088889-10.12622222-11.60533333-18.31822223-27.87555556l-0.56888889-1.024c-46.53511111-82.83022222-120.60444445-219.136-121.40088888-220.50133333l-5.91644445-10.80888889-12.17422222-2.38933334c-1.36533333-0.22755555-137.216-26.51022222-224.02844445-42.89422222l-0.56888888-0.11377778c-11.49155555-1.93422222-19.91111111-7.28177778-22.64177778-14.336-1.93422222-5.00622222-0.68266667-10.46755555 3.41333333-15.58755555 60.75733333-72.93155555 169.30133333-194.44622222 170.32533333-195.69777778l7.96444445-8.98844444-1.59288889-11.94666667c-0.22755555-1.36533333-17.97688889-134.94044445-27.76177778-225.28-0.91022222-10.12622222 0.79644445-18.432 4.66488889-22.64177778 0.91022222-1.024 3.64088889-3.98222222 10.58133333-3.98222222 4.77866667 0 10.24 1.36533333 15.81511112 3.98222222 74.752 36.97777778 187.05066667 92.72888889 210.944 104.67555556l11.83288888 5.91644444 20.70755556-10.58133333c36.63644445-18.65955555 133.46133333-68.03911111 199.45244444-101.14844445z"  horiz-adv-x="1024" />

    
    <glyph glyph-name="jiantou" unicode="&#58893;" d="M739.447391-127.999659a62.327446 62.327446 0 0 0-43.963719 17.988261L239.564891 340.548452a60.92798 60.92798 0 0 0 0 86.869304L695.483672 877.977606a62.668779 62.668779 0 0 0 87.927438 0 60.893846 60.893846 0 0 0 0-86.869304L371.524313 384.000171l411.92093-407.073998a60.92798 60.92798 0 0 0 0-86.903438 62.020246 62.020246 0 0 0-43.929586-18.022394z"  horiz-adv-x="1024" />

    
    <glyph glyph-name="yijituijian" unicode="&#58895;" d="M705.979139-128c-22.529493 0-43.672478 9.030081-59.533525 25.42948l-115.638871 119.620638-115.633792-119.615559a84.343393 84.343393 0 0 0-26.683939-18.522332 80.574934 80.574934 0 0 0-32.783562-6.907148h-0.106654c-22.361893 0-43.489642 8.994529-59.462423 25.332983a87.477004 87.477004 0 0 0-17.821459 27.323866 86.522192 86.522192 0 0 0-6.460215 33.133998v246.585201l40.269692-29.111599c64.505657-46.628331 140.118617-71.275678 218.672195-71.275678 78.558657 0 154.176696 24.652426 218.682352 71.275678l40.274771 29.111599v-246.585201c0.005079-47.308888-37.577935-85.795926-83.77457-85.795926z m-383.326426 236.2194v-150.423474c0-4.911186 0.888787-9.553196 2.640969-13.804139a36.871984 36.871984 0 0 1 7.379475-11.366323c6.130094-6.262143 14.357727-9.837608 22.966269-9.837607l0.071103-25.393929v25.393929c4.276338 0 8.425705 0.87863 12.331292 2.610495a33.880579 33.880579 0 0 1 10.716237 7.435343l117.705937 121.758807c-61.168894 4.961974-120.143753 23.174499-173.811282 53.626898z m242.506936-53.631977l117.797355-121.850225c6.206276-6.414506 14.383121-9.949341 23.022135-9.949341 18.19221 0 32.991792 15.703605 32.991792 35.008069v150.423474c-53.667528-30.452399-112.632229-48.664924-173.811282-53.631977z m-34.342748 59.010411c-207.183982 0-375.73872 173.953487-375.73872 387.775442 0 213.837191 168.554738 387.800836 375.73872 387.800836s375.733641-173.963645 375.733641-387.800836c0.005079-213.821955-168.54966-387.775442-375.733641-387.775442z m0 724.788422c-179.179558 0-324.950864-151.185291-324.950864-337.01298 0-185.812452 145.771306-336.987586 324.950864-336.987586 179.174479 0 324.945785 151.175134 324.945785 336.987586 0.005079 185.832767-145.771306 337.01298-324.945785 337.01298z m61.300943-507.309742h-91.062627V521.774758a182.963253 182.963253 0 0 0-23.225287-8.892954l-32.874979-10.132177V599.622384l18.6493 5.134653c8.517124 2.346399 18.23284 6.637973 28.893212 12.757909 9.918868 6.521161 18.273471 13.621303 24.830183 21.112512l7.587706 8.664409h67.20757l-0.005078-316.215353z"  horiz-adv-x="1024" />

    
    <glyph glyph-name="pay-key" unicode="&#58908;" d="M681.79501953 832.22285156c-154.11357422 0-279.11162109-125.0015625-279.11162109-279.11162109 0-35.87080078 7.52607422-69.77900391 19.84570312-101.28955078L83.50332031 112.74316406000003c-9.75849609-9.81210938-15.86601562-19.08017578-15.86601562-34.06992187v-83.73339844c0-29.87490234 25.94970703-55.82285156 55.82285156-55.82285156h83.73339844c14.93701172 0 24.42216797 5.94316406 34.23867187 15.75351562l40.01044922 40.06757813h65.36162109c30.80214844 0 55.82285156 25.02246094 55.82285157 55.82373047v55.82285156h55.82285156c30.80214844 0 55.82285156 25.02158203 55.82285156 55.82285156v65.41699219l66.12890625 66.12451173c31.50703125-12.42773438 65.41699219-19.89580078 101.33876953-19.89580079 154.11445312 0 279.1125 124.99892578 279.1125 279.11162109 0 154.11005859-124.99892578 279.10986327-279.1125 279.10986328l0.05712891-0.05361328z m0-502.40390625c-41.32089844 0-79.58935547 11.99267578-112.84365234 31.61865235L474.8046875 267.29003906c-10.52138672-10.52138672-16.35644531-24.58652345-16.35644531-39.46816406v-65.41699219h-55.82285157c-30.79863281 0-55.82285156-24.91347655-55.82285156-55.82285156v-55.82285156h-65.36162109c-14.82802734 0-29.00126953-5.83242188-39.46552735-16.3546875l-39.58066406-39.57890625-78.88095703 0.11074218-0.05537109 79.53574219 325.56005859 325.0116211v-0.05361329l40.99482422 40.93857422c-19.62421875 33.25166016-31.61953125 71.46826172-31.61953126 112.79091797 0 123.30878906 100.03447266 223.28789063 223.29052735 223.28789063 123.25957031 0 223.28876953-99.97734375 223.28876954-223.28789063 0-123.31142578-99.92285156-223.29052734-223.23515625-223.29052734l0.05449218-0.05625zM844.13867188 602.2280273399999c-31.28994141 43.61044922-69.39580078 81.60556641-113.1741211 113.17236328-7.08310547 5.12402345-16.35205078 6.37646484-24.63837891 3.4866211-38.70351562-13.57294922-65.30625001-40.17480469-78.82558593-78.88095703-0.98173828-2.94345703-1.52841797-5.94140625-1.52841797-8.94023438 0-5.50371094 1.74550781-11.01181641 5.06865234-15.64365234 31.45517578-43.66582031 69.45117188-81.7171875 113.1741211-113.17324219 7.14287109-5.12402345 16.30195313-6.37822266 24.58740234-3.54287109 38.86523438 13.51933594 65.41699219 40.12207031 79.04091797 78.93720703a27.68818359 27.68818359 0 0 1 1.47392578 8.94023437c-0.05625001 5.50546875-1.80175781 11.01357422-5.06865234 15.69990235l-0.1116211-0.05449219z m-83.73603517-77.3024414a477.22675781 477.22675781 0 0 0-106.63242187 105.92050781c10.79736327 30.74589844 31.07548828 50.91767578 60.89765625 61.98398437 41.26552734-29.76416016 77.13632813-65.58134766 106.51728516-106.35644531-10.84746094-30.58505859-31.01484375-50.58720703-60.78251954-61.43730469v-0.11162109z"  horiz-adv-x="1024" />

    
    <glyph glyph-name="jiaoyijilu-" unicode="&#58918;" d="M303.686 196.096c-18.823 0-34.061-15.238-34.061-34.061s15.238-34.061 34.061-34.061H428.73c-2.243 14.788-3.586 30.025-3.586 45.711 0 7.621 0.449 15.237 0.897 22.41H303.686zM530.015 401.36H303.686c-18.823 0-34.061-15.237-34.061-34.061 0-18.823 15.238-34.065 34.061-34.065h167.169c16.585 25.103 36.305 48.406 59.16 68.126z m206.611 328.511h34.061c37.646 0 68.121-30.475 68.121-68.57V447.97c24.653-10.309 47.507-24.2 68.125-40.784V661.301c0 75.292-60.953 136.694-136.246 136.694h-34.061c-18.823 0-34.061-15.236-34.061-34.061 0-18.823 15.238-34.063 34.061-34.063z m-337.477 0h169.858c28.235 0 51.094 22.857 51.094 51.093 0 28.235-22.858 51.093-51.094 51.093H399.149c-28.234 0-51.093-22.857-51.093-51.093 0-28.236 22.859-51.093 51.093-51.093z m65.433-704.98H201.954c-37.647 0-68.126 30.478-68.126 68.574V661.301c0 37.646 30.478 68.57 68.126 68.57h34.06c18.824 0 34.061 15.241 34.061 34.064 0 18.824-15.236 34.061-34.061 34.061h-34.06c-75.294 0-136.247-60.953-136.247-136.694v-568.284c0-75.742 60.953-136.696 136.247-136.696h316.409c-21.063 20.168-38.989 43.027-53.781 68.569zM303.686 537.158H668.5c18.823 0 34.065 15.236 34.065 34.06s-15.242 34.061-34.065 34.061H303.686c-18.823 0-34.061-15.236-34.061-34.061 0.001-18.373 15.238-34.06 34.061-34.06z m418.595-126.834c-129.967 0-235.291-105.768-235.291-236.638 0-130.865 105.323-236.637 235.291-236.637 129.973 0 235.295 105.772 235.295 236.637 0 130.42-105.322 236.638-235.295 236.638z m154.173-221.849c0-6.719-5.826-12.1-12.549-12.1H742.003v-51.537h121.902c6.724 0 12.549-5.381 12.549-12.101v-22.41c0-6.723-5.826-12.099-12.549-12.099h-122.8v-47.063c0-6.718-5.827-12.099-12.549-12.099h-22.854c-6.723 0-12.549 5.381-12.549 12.099v47.063H580.214c-6.724 0-12.549 5.377-12.549 12.099v22.41c0 6.719 5.825 12.101 12.549 12.101h112.939v51.537H580.214c-6.724 0-12.549 5.381-12.549 12.1v22.409c0 6.724 5.825 12.105 12.549 12.105h76.187l-42.126 68.12c-4.035 7.617-4.484 21.961 8.065 29.133 16.135 9.412 30.923-2.243 30.923-2.243l62.745-95.458h3.586l59.607 95.458c6.274 10.309 21.512 13.895 35.407 4.483 16.584-12.548 6.724-28.234 6.724-28.234l-43.023-71.707h86.495c6.724 0 12.549-5.381 12.549-12.1v-21.965h-0.899z m0 0"  horiz-adv-x="1024" />

    
    <glyph glyph-name="yanzhengma" unicode="&#58889;" d="M512.05632 841.95328c99.94752-77.05088 207.5392-130.69312 392.15104-130.69312v-338.62656c0-161.48992-207.5136-446.592-392.15104-446.592-184.61696 0-392.2688 285.10208-392.2688 446.592V711.26016c184.50432 0.00512 292.20864 53.64736 392.2688 130.69312z m-0.01024-76.14464C428.62592 701.568 338.82624 656.84992 185.00608 656.84992v-282.32192c0-134.64064 173.12768-372.33664 327.04-372.33664 153.93792 0 326.94272 237.696 326.94272 372.33664V656.84992c-153.91232 0-243.61472 44.71808-326.94272 108.95872z m230.4512-246.71744l-25.3184 25.2672c-6.33344 6.31808-18.0992 4.80256-26.28096-3.3792l-234.35264-234.52672-124.13952 118.22592c-8.49408 8.09472-20.38272 9.3952-26.5472 2.91328l-24.64768-25.91744c-6.16448-6.48192-4.2752-18.29888 4.224-26.38848l155.70432-148.29568a26.01984 26.01984 0 0 1 10.368-6.13888c6.528-2.67776 15.44704-0.42496 22.0416 6.17472l265.61024 265.8048c8.17152 8.18176 9.67168 19.9424 3.33824 26.26048z"  horiz-adv-x="1024" />

    
    <glyph glyph-name="jiaoyi" unicode="&#58903;" d="M505.837 447.182l-22.562-22.137c-14.12-13.854-14.335-36.53-0.481-50.649l55.179-56.238c13.853-14.12 36.53-14.334 50.648-0.48l150.301 147.47c14.12 13.854 14.335 36.53 0.481 50.649l-55.179 56.238c-13.853 14.12-36.53 14.334-50.648 0.48l-22.562-22.137-124.707 127.1 22.562 22.137c14.12 13.854 14.334 36.53 0.48 50.649l-55.178 56.238c-13.854 14.12-36.53 14.334-50.649 0.48l-150.3-147.47c-14.12-13.853-14.335-36.53-0.482-50.648l55.179-56.237c13.853-14.12 36.53-14.335 50.649-0.481l22.561 22.137 7.448-7.591-288.44-282.754s-50.33-66.566-10.308-107.07c60.02-60.022 124.048-6.828 124.048-6.828l284.615 284.629 7.345-7.487zM911.037 19.37h-77.655v57.894c0 8.998-16.036 16.292-35.816 16.292H779.66v34.277c0 19.78-16.035 35.815-35.816 35.815h-302.88c-19.78 0-35.816-16.035-35.816-35.815v-34.277h-13.3c-19.781 0-35.816-7.294-35.816-16.292v-57.895h-89.58c-16.647 0-30.14-13.495-30.14-30.141s13.494-30.142 30.14-30.142h644.583c16.647 0 30.143 13.496 30.143 30.142s-13.495 30.141-30.142 30.141z"  horiz-adv-x="1024" />

    
    <glyph glyph-name="chongzhi1" unicode="&#58959;" d="M1308.444444 896H113.777778a113.777778 113.777778 0 0 1-113.777778-113.777778h1422.222222a113.777778 113.777778 0 0 1-113.777778 113.777778zM0-14.222222a113.777778 113.777778 0 0 1 113.777778-113.777778h1194.666666a113.777778 113.777778 0 0 1 113.777778 113.777778V725.333333H0v-739.555555z m483.555556 227.555555h199.111111v85.333334h-170.666667v56.888889h156.814222L483.555556 543.317333 522.666667 583.111111l186.851555-189.326222L898.958222 583.111111 938.666667 543.317333 750.819556 355.555556H910.222222v-56.888889h-170.666666v-85.333334h199.111111v-56.888889h-199.111111v-142.222222h-56.888889v142.222222h-199.111111v56.888889zM113.777778 156.444444h56.888889v-56.888888a56.888889 56.888889 0 0 1 56.888889-56.888889h170.666666v-56.888889H199.111111a85.333333 85.333333 0 0 0-85.333333 85.333333v85.333333z"  horiz-adv-x="1422" />

    
    <glyph glyph-name="tuijianma" unicode="&#58981;" d="M948.2406577 32.18385174000002H86.59598412a23.86092942 23.86092942 0 0 0-23.86092943 23.86092943v234.63247264a23.86092942 23.86092942 0 0 0 26.51214381 23.86092942h5.30242875a69.72693821 69.72693821 0 0 1 0 139.18875498h-5.30242875a23.86092942 23.86092942 0 0 0-26.51214381 23.86092942v234.3673512a23.86092942 23.86092942 0 0 0 23.86092943 23.86092943h861.64467358a23.86092942 23.86092942 0 0 0 23.86092941-23.86092943v-234.3673512a23.86092942 23.86092942 0 0 0-22.80044366-23.86092942 69.72693821 69.72693821 0 0 1 0-139.18875498 23.86092942 23.86092942 0 0 0 22.80044366-23.86092942v-234.36735121a23.86092942 23.86092942 0 0 0-23.86092941-23.86092943zM110.45691355 80.17083202000003h813.92281472V269.99778165a117.71391849 117.71391849 0 0 0 0 228.26955814v189.56182819H110.45691355v-187.70597812a117.44879705 117.44879705 0 0 0 0-232.51150115z m0 0M762.92077251 528.22606228H271.91586929a23.86092942 23.86092942 0 1 0 0 47.98698029h491.00490322a23.86092942 23.86092942 0 0 0 0-47.98698029z m0 0"  horiz-adv-x="1024" />

    
    <glyph glyph-name="add" unicode="&#58905;" d="M510.00008279-101.95700940999996c-267.66448686 0-484.64981379 217.02905401-484.64981379 484.72806135S242.33559594 867.48300356 510.00008279 867.48300356c267.66678789 0 484.65211483-217.01294429 484.65211483-484.71195162S777.66687069-101.95700940999996 510.00008279-101.95700940999996zM510.00008279 806.8963102c-234.20901422 0-424.06772372-189.88632564-424.06772372-424.12525826S275.79106736-41.35650857999997 510.00008279-41.35650857999997s424.06772372 189.88862669 424.06772373 424.12756052S744.20909701 806.8963102 510.00008279 806.8963102zM691.74404953 352.47080153L540.29342887 352.47080153l0-151.47363594c0-16.7219825-13.5621582-30.28874399-30.29104503-30.28874399-16.72888684 0-30.28874399 13.56676149-30.288744 30.28874399l0 151.47363594-151.45522396 0c-16.72888684 0-30.29104503 13.56445923-30.29104503 30.30025041 0 16.72428354 13.56445923 30.28874399 30.29104503 30.288744l151.45522396 0 0 151.48054026c0 16.7219825 13.5621582 30.28183965 30.288744 30.28183966 16.73118788 0 30.29104503-13.55755489 30.29104503-30.28183966l0-151.48054026 151.45062187 0c16.73118788 0 30.29104503-13.56445923 30.29104504-30.288744C722.03509456 366.03526076 708.47523741 352.47080153 691.74404953 352.47080153z"  horiz-adv-x="1024" />

    
    <glyph glyph-name="youxiang" unicode="&#58937;" d="M867.93094971 65.83333360999995H155.43095029c-51.00000029 0-92.99999971 42.00000029-93.00000058 92.99999971V644.8333333200001C62.43094971 697.33333303 104.43095 739.3333333200001 155.43095029 739.3333333200001h711c51.00000029 0 92.99999971-42.00000029 92.99999971-92.99999971v-486c1.50000029-52.49999971-40.5-94.5-91.50000029-94.5zM155.43095029 701.83333303c-31.5 0-55.50000029-25.49999971-55.50000029-55.49999942v-486c0-31.5 25.49999971-55.50000029 55.50000029-55.50000029h711c31.5 0 55.50000029 25.49999971 55.49999942 55.50000029V644.8333333200001c0 31.5-25.49999971 55.50000029-55.49999942 55.50000029H155.43095029z m0 0M512.43094971 289.33333331999995c-29.99999971 0-61.49999971 10.50000029-85.5 31.5L68.43095 631.3333333200001c-7.49999971 7.49999971-9 18-1.50000029 27 7.49999971 7.49999971 18 9 27 1.50000029L450.93095 349.33333360999995c34.49999971-29.99999971 88.49999971-29.99999971 123.00000029 0l356.99999942 310.5c7.49999971 6.00000029 19.50000029 6.00000029 27-1.50000029s6.00000029-19.50000029-1.49999942-27L597.93094971 320.83333331999995C573.93095029 299.83333360999995 542.43095029 289.33333331999995 512.43094971 289.33333331999995z m0 0M167.43095 214.33333360999995c-4.5 0-10.50000029 1.50000029-13.5 5.99999942-7.49999971 7.49999971-6.00000029 19.50000029 1.50000029 27l194.99999942 169.50000058c7.49999971 6.00000029 19.50000029 6.00000029 27-1.50000029s6.00000029-19.50000029-1.49999942-27l-195.00000029-169.49999971c-4.5-2.99999971-9-4.5-13.5-4.5z m688.5 0c-4.5 0-9 1.50000029-11.99999971 4.5L650.43095029 388.33333332c-7.49999971 7.49999971-9 18-1.50000029 27 7.49999971 7.49999971 18 9 27 1.50000029l193.5-168.00000029c7.49999971-7.49999971 9-18 1.50000029-27-4.5-4.5-10.50000029-7.49999971-15.00000029-7.49999971z m0 0"  horiz-adv-x="1024" />

    
    <glyph glyph-name="tixian1" unicode="&#58919;" d="M669.5 345v-77.9c0-43 35.3-77.9 78.8-77.9h196.9v-155.9c0-43-35.3-77.9-78.8-77.9H78.8C35.3-44.7 0-9.8 0 33.3V695.7c0 64.6 52.9 117 118.2 117h787.7c21.8 0 39.4-17.4 39.4-39 0-21.5-17.6-39-39.4-39H118.2c-21.8 0-39.4-17.4-39.4-39 0-21.5 17.6-39 39.4-39h748.3c43.5 0 78.8-34.9 78.8-77.9V423h-197c-43.5 0-78.8-34.9-78.8-78z m118.2 0c-21.8 0-39.4-17.4-39.4-39 0-21.5 17.6-39 39.4-39 21.8 0 39.4 17.4 39.4 39s-17.7 39-39.4 39z m196.9-116.9H787.7c-43.5 0-78.8 34.9-78.8 77.9 0 43 35.3 77.9 78.8 77.9h196.9c21.7 0 39.4-17.4 39.4-39V267c0-21.4-17.6-38.9-39.4-38.9z"  horiz-adv-x="1024" />

    
    <glyph glyph-name="jianpan" unicode="&#58957;" d="M533.504 327.68h85.504v85.504H533.504V327.68z m20.992 213.504H469.504V455.68h85.504v85.504zM405.504 327.68h85.504v85.504h-85.504V327.68z m20.992 213.504h-85.504V455.68h85.504v85.504z m256 0H597.504V455.68h85.504v85.504zM320 199.68h384v85.504h-384V199.68z m-21.504 341.504h-85.504V455.68h85.504v85.504zM661.504 327.68h85.504v85.504H661.504V327.68z m64 128h85.504v85.504H725.504V455.68z m128 213.504H170.496c-47.104 0-85.504-38.4-85.504-85.504v-426.496c0-47.104 38.4-85.504 85.504-85.504H853.504c47.104 0 85.504 38.4 85.504 85.504V583.68c-0.512 47.104-38.912 85.504-85.504 85.504z m42.496-512c0-23.552-19.456-42.496-42.496-42.496H171.008c-23.552 0-42.496 19.456-42.496 42.496V583.68c0 23.552 19.456 42.496 42.496 42.496H853.504c23.552 0 42.496-19.456 42.496-42.496v-426.496z m-533.504 256h-85.504V327.68h85.504v85.504z"  horiz-adv-x="1024" />

    
    <glyph glyph-name="yonghutouxiang" unicode="&#58880;" d="M959.68-25.024c-15.232 181.696-139.648 331.968-307.84 386.624 70.464 45.632 117.248 124.48 117.248 214.464C769.152 717.376 654.208 832 512.512 832 370.752 832 255.808 717.376 255.808 576.0640000000001c0-89.984 46.784-168.832 117.248-214.528-168.192-54.592-292.544-204.864-307.84-386.56-0.192-3.456-0.64-5.44 0-10.176C66.496-51.200000000000045 80.64-64 96.704-64c17.92 0 32.064 14.656 32.064 32 16.704 197.76 182.272 351.936 383.744 351.936 201.408 0 366.976-154.176 383.68-351.936 0-17.344 14.144-32 32.064-32 16.064 0 30.208 12.8 31.424 28.8C960.32-30.464000000000055 959.936-28.416000000000054 959.68-25.024zM320 576.0640000000001C320 682.048 406.208 768 512.512 768s192.448-85.952 192.448-191.936c0-106.048-86.144-192-192.448-192S320 470.016 320 576.0640000000001z"  horiz-adv-x="1024" />

    
    <glyph glyph-name="shanchu" unicode="&#58907;" d="M1002.666667 597.333333v-426.666666a171.733333 171.733333 0 0 0-173.013334-170.666667H347.306667a43.946667 43.946667 0 0 0-33.493334 15.573333l-282.666666 341.333334a42.666667 42.666667 0 0 0 0 55.04l301.226666 341.333333A42.666667 42.666667 0 0 0 365.866667 768h463.786666A171.733333 171.733333 0 0 0 1002.666667 597.333333z m-197.973334 128H388.48a39.466667 39.466667 0 0 1-29.44-13.013333L88.533333 408.106667a37.333333 37.333333 0 0 1 0-48.853334L341.333333 56.533333a39.04 39.04 0 0 1 29.866667-13.866666h433.066667a153.386667 153.386667 0 0 1 155.733333 151.68V573.653333A153.386667 153.386667 0 0 1 804.693333 725.333333zM790.826667 556.16a21.333333 21.333333 0 0 1-15.146667-6.186667L474.026667 248.32a21.333333 21.333333 0 0 1 0-30.293333 21.333333 21.333333 0 0 1 15.146666-6.186667 21.333333 21.333333 0 0 1 15.146667 6.186667l301.653333 301.653333a21.333333 21.333333 0 0 1 0 30.293333 21.333333 21.333333 0 0 1-15.146666 6.186667zM489.173333 556.16a21.333333 21.333333 0 0 1-15.146666-6.186667 21.333333 21.333333 0 0 1 0-30.293333l301.653333-301.653333a21.333333 21.333333 0 0 1 15.146667-6.186667 21.333333 21.333333 0 0 1 15.146666 6.186667 21.333333 21.333333 0 0 1 0 30.293333L504.32 549.973333a21.333333 21.333333 0 0 1-15.146667 6.186667z"  horiz-adv-x="1024" />

    
    <glyph glyph-name="weixiao" unicode="&#58991;" d="M512 896a512 512 0 1 1 512-512A512 512 0 0 1 512 896z m0-975.238095a463.238095 463.238095 0 1 0 463.238095 463.238095 463.238095 463.238095 0 0 0-463.238095-463.238095zM286.47619001 575.878095m-73.14285701 0a73.142857 73.142857 0 1 1 146.285715 0 73.142857 73.142857 0 1 1-146.285715 0ZM737.52380999 575.878095m-73.14285799 0a73.142857 73.142857 0 1 1 146.285715 0 73.142857 73.142857 0 1 1-146.285715 0ZM804.571429 411.306667a24.380952 24.380952 0 0 1-24.380953-24.38095301 268.190476 268.190476 0 0 0-536.380952 3e-8 24.380952 24.380952 0 0 1-48.761905 0 316.952381 316.952381 0 0 1 633.904762 0 24.380952 24.380952 0 0 1-24.380952 24.38095298z"  horiz-adv-x="1024" />

    
    <glyph glyph-name="xiaoxi" unicode="&#58883;" d="M512.8 896C229.6 896 0 691.1 0 438.2c0-148.5 72.2-280.5 195-364.1 0.7-0.5-12.6-202.1-12.6-202.1l206.2 120.9c37.8-7.9 80.5-12.4 121-12.4 283.2 0 514.5 204.9 514.5 457.8C1024 691.1 796.1 896 512.8 896zM263.3 371.9c-35.3 0-64 28.8-64 64.3s28.7 64.3 64 64.3c35.4 0 64-28.8 64-64.3s-28.7-64.3-64-64.3z m248.7 0c-35.4 0-64 28.8-64 64.3s28.7 64.3 64 64.3 64-28.8 64-64.3-28.7-64.3-64-64.3z m248.7 0c-35.3 0-64 28.8-64 64.3s28.7 64.3 64 64.3c35.4 0 64-28.8 64-64.3s-28.7-64.3-64-64.3z"  horiz-adv-x="1024" />

    
    <glyph glyph-name="xiadan" unicode="&#58994;" d="M512 896C230.4 896 0 665.6 0 384s230.4-512 512-512 512 230.4 512 512S793.6 896 512 896z m-192-734.72c-7.68 0-17.92 2.56-28.16 7.68-10.24 5.12-20.48 12.8-28.16 20.48-7.68 7.68-15.36 17.92-20.48 28.16-5.12 10.24-7.68 20.48-7.68 33.28V560.64c0 10.24 2.56 20.48 7.68 28.16 5.12 10.24 10.24 20.48 17.92 28.16 7.68 7.68 15.36 15.36 25.6 20.48 10.24 5.12 20.48 7.68 30.72 7.68h381.44c10.24 0 20.48-2.56 30.72-7.68 10.24-5.12 20.48-10.24 28.16-17.92 7.68-7.68 15.36-17.92 20.48-28.16 5.12-10.24 7.68-23.04 7.68-33.28v-135.68c-15.36 10.24-33.28 17.92-51.2 23.04-17.92 5.12-35.84 7.68-56.32 7.68H665.6c7.68 2.56 15.36 7.68 20.48 15.36 5.12 7.68 7.68 15.36 7.68 23.04 0 12.8-5.12 20.48-12.8 30.72-7.68 7.68-17.92 12.8-30.72 12.8H358.4c-12.8 0-20.48-5.12-30.72-12.8-7.68-7.68-12.8-17.92-12.8-30.72s5.12-20.48 12.8-30.72c7.68-7.68 17.92-12.8 30.72-12.8h281.6c-25.6-5.12-51.2-12.8-74.24-28.16-23.04-15.36-40.96-33.28-53.76-56.32h-153.6c-12.8 0-20.48-5.12-30.72-12.8-7.68-7.68-12.8-17.92-12.8-28.16 0-12.8 5.12-23.04 12.8-30.72s17.92-12.8 30.72-12.8h122.88v-20.48c0-20.48 2.56-38.4 7.68-56.32 5.12-17.92 15.36-35.84 25.6-51.2h-194.56z m488.96 48.64c-7.68-17.92-17.92-33.28-30.72-46.08s-28.16-23.04-46.08-30.72c-17.92-7.68-35.84-10.24-56.32-10.24-20.48 0-38.4 2.56-58.88 10.24-17.92 7.68-33.28 17.92-46.08 30.72s-23.04 28.16-30.72 46.08c-7.68 17.92-12.8 35.84-12.8 58.88 0 20.48 5.12 38.4 12.8 56.32 7.68 17.92 17.92 33.28 30.72 46.08s28.16 23.04 46.08 30.72c17.92 7.68 38.4 12.8 58.88 12.8 20.48 0 38.4-5.12 56.32-12.8 17.92-7.68 33.28-17.92 46.08-30.72s23.04-28.16 30.72-46.08c7.68-17.92 12.8-35.84 12.8-56.32 0-20.48-5.12-40.96-12.8-58.88z m-46.08 102.4c-2.56 2.56-5.12 5.12-7.68 5.12-5.12 2.56-7.68 2.56-12.8 0s-7.68-5.12-12.8-10.24l-30.72-30.72-28.16-28.16c-2.56-2.56-7.68-5.12-10.24-5.12-5.12 0-7.68 0-7.68 2.56-2.56 0-2.56 2.56-7.68 7.68-2.56 2.56-5.12 7.68-10.24 10.24-2.56 2.56-5.12 7.68-10.24 10.24l-7.68 7.68c-2.56 2.56-5.12 2.56-7.68 5.12-2.56 0-7.68 0-10.24-5.12 0 0-2.56 0-2.56-2.56l-5.12-5.12-5.12-5.12-2.56-2.56c-7.68-7.68-5.12-15.36 2.56-25.6 2.56-2.56 5.12-7.68 10.24-12.8s10.24-10.24 12.8-15.36l15.36-15.36 12.8-12.8c2.56-2.56 7.68-5.12 15.36-5.12 5.12 0 10.24 2.56 15.36 5.12l20.48 20.48 25.6 25.6 25.6 25.6 23.04 23.04c2.56 2.56 5.12 7.68 7.68 10.24 2.56 5.12 2.56 7.68-2.56 12.8 2.56 2.56 0 5.12-5.12 10.24z"  horiz-adv-x="1024" />

    
    <glyph glyph-name="bangzhu" unicode="&#58884;" d="M497.371429 881.371429C577.828571 888.685714 658.285714 866.742857 731.428571 837.485714c80.457143-36.571429 146.285714-95.085714 197.485715-168.228571 43.885714-65.828571 73.142857-146.285714 80.457143-234.057143 7.314286-80.457143 0-160.914286-29.257143-234.057143s-73.142857-138.971429-138.971429-190.171428c-51.2-43.885714-117.028571-80.457143-182.857143-102.4-80.457143-21.942857-168.228571-29.257143-248.685714-7.314286-73.142857 14.628571-146.285714 51.2-212.114286 102.4C117.028571 69.485714 58.514286 164.571429 29.257143 266.971429 7.314286 332.8 7.314286 420.571429 21.942857 493.714286c21.942857 80.457143 58.514286 153.6 109.714286 219.428571C182.857143 764.342857 234.057143 808.228571 292.571429 837.485714 358.4 866.742857 424.228571 881.371429 497.371429 881.371429z m-7.314286-138.971429c-58.514286-7.314286-109.714286-36.571429-146.285714-80.457143-29.257143-36.571429-43.885714-87.771429-43.885715-131.657143 0-14.628571 0-36.571429 7.314286-51.2 14.628571-21.942857 36.571429-29.257143 58.514286-21.942857 21.942857 7.314286 36.571429 29.257143 36.571428 43.885714v43.885715c7.314286 36.571429 36.571429 73.142857 73.142857 80.457143 36.571429 14.628571 73.142857 7.314286 102.4-14.628572 21.942857-14.628571 43.885714-43.885714 43.885715-80.457143 0-29.257143 0-51.2-21.942857-73.142857-21.942857-21.942857-51.2-36.571429-80.457143-65.828571-29.257143-21.942857-51.2-65.828571-58.514286-102.4V237.714286c0-21.942857 7.314286-36.571429 29.257143-43.885715 7.314286-7.314286 21.942857-7.314286 36.571428 0 21.942857 7.314286 36.571429 21.942857 36.571429 43.885715v36.571428c0 21.942857 14.628571 51.2 29.257143 65.828572 14.628571 14.628571 29.257143 21.942857 43.885714 29.257143 36.571429 21.942857 65.828571 58.514286 80.457143 102.4 7.314286 36.571429 7.314286 80.457143 0 117.028571-14.628571 51.2-51.2 102.4-102.4 124.342857-36.571429 21.942857-80.457143 29.257143-124.342857 29.257143z m7.314286-607.085714c-21.942857-7.314286-43.885714-29.257143-43.885715-51.2 0-29.257143 29.257143-51.2 58.514286-51.2s58.514286 29.257143 51.2 58.514285c0 29.257143-36.571429 51.2-65.828571 43.885715z"  horiz-adv-x="1024" />

    
    <glyph glyph-name="tixian" unicode="&#58934;" d="M895.3 627.8h-94.1L701.3 800.6c-12.1 21-34 32.6-56.5 32.6-11.1 0-22.1-2.8-32.4-8.6L271.9 627.8h-142c-35.8 0-65.1-29.2-65.1-65.1v-560.1c0-36 29.3-65.1 65.1-65.1h765.4c36 0 65.1 29.2 65.1 65.1v560c0 36-29.1 65.2-65.1 65.2zM645 768l80.9-140.2H402L645 768z m250.3-765.4H129.9v560h765.4v-177.3H668.1c-36 0-65.1-29.2-65.1-65.1v-79.8c0-36 29.2-65.1 65.1-65.1h227.2v-172.7z m0 237.7H668.1v79.8h227.2v-79.8z"  horiz-adv-x="1024" />

    
    <glyph glyph-name="huhuan" unicode="&#58921;" d="M512.8 844.8c254.4 0 460.8-206.4 460.8-460.8s-206.4-460.8-460.8-460.8S52 130.4 52 384c0 254.4 206.4 460.8 460.8 460.8m0 51.2C230.4 896 0.8 666.4 0.8 384s229.6-512 512-512 512 229.6 512 512-229.6 512-512 512z m0 0M240.8 452h544.8c11.2 0 17.6 13.6 8.8 22.4l-38.4 38.4-99.2 99.2c-8 8-22.4 2.4-22.4-8.8v-76.8c0-7.2-5.6-12.8-12.8-12.8H240.8c-7.2 0-12.8-5.6-12.8-12.8v-34.4c-0.8-8.8 5.6-14.4 12.8-14.4z m544-135.2H240c-11.2 0-17.6-13.6-8.8-22.4l38.4-38.4 99.2-99.2c8-8 22.4-2.4 22.4 8.8v77.6c0 7.2 5.6 12.8 12.8 12.8h380.8c7.2 0 12.8 5.6 12.8 12.8V304c0.8 7.2-5.6 12.8-12.8 12.8z m0 0"  horiz-adv-x="1024" />

    
    <glyph glyph-name="wodeyuanbao" unicode="&#58911;" d="M157.392593 548.977778c108.088889-56.888889 227.555556-89.125926 354.607407-89.125926s248.414815 32.237037 354.607407 89.125926c3.792593 1.896296 7.585185 3.792593 11.377778 3.792592 0 0 5.688889 1.896296 15.170371 1.896297 30.340741 0 98.607407-11.377778 92.918518-117.570371 0 0-5.688889-297.718519-238.933333-415.288889 0 0-91.022222-36.02963-229.451852-36.029629-70.162963 0-149.807407 9.481481-237.037037 36.029629C43.614815 139.377778 37.925926 437.096296 37.925926 437.096296 32.237037 543.288889 100.503704 554.666667 132.740741 554.666667c9.481481 0 15.17037-1.896296 15.17037-1.896297 3.792593 0 5.688889-1.896296 9.481482-3.792592zM269.274074 575.525926C288.237037 693.096296 388.740741 782.222222 512 782.222222s223.762963-89.125926 242.725926-206.696296c-75.851852-26.548148-157.392593-39.822222-242.725926-39.822222s-166.874074 13.274074-242.725926 39.822222z"  horiz-adv-x="1024" />

    
    <glyph glyph-name="mima" unicode="&#59827;" d="M810.6875 485.99999971H295.62499971V570.075a208.125 208.125 0 0 0 207.93750029 207.7875 208.2375 208.2375 0 0 0 207.93750029-208.05000029c0-15.56250029 12.4875-28.08749971 28.04999942-28.08749971a27.97499971 27.97499971 0 0 1 28.05000029 28.08749971C767.56249971 715.49999971 649.06250029 834 503.52499971 834c-70.57500029 0-136.87499971-27.41249971-186.75-77.32500029a262.05000029 262.05000029 0 0 1-77.32499942-186.59999971V485.99999971H180.2375C145.8125 485.99999971 118.25 458.43749971 118.25 424.12499971v-426.22499971c0-34.425 27.675-62.8875 61.9875-62.8875h630.3375c34.425 0 62.73749971 28.4625 62.73749971 62.8875V424.12499971c0.15000029 34.3125-28.16250029 61.875-62.62499971 61.875z m6.6375-488.73749942a6.26249971 6.26249971 0 0 0-6.26249971-6.22500029H180.61250029a6.26249971 6.26249971 0 0 0-6.22500029 6.22500029v426.375c0 3.41250029 2.8125 6.22500029 6.22500029 6.22499942h630.3375c3.44999971 0 6.26249971-2.8125 6.26249971-6.26249971v-426.33749971h0.1125z m-326.5875 343.31249971c-31.76250029 0-57.375-25.65-57.375-57.41250029 0-20.925 11.21249971-39.30000029 28.05000029-49.3875v-111.375a28.125 28.125 0 0 1 28.04999942-28.04999942 28.125 28.125 0 0 1 28.08750058 28.08749971v109.95000029c18.225 9.5625 30.6 28.6875 30.6 50.77499942 0 31.76250029-25.65 57.375-57.375 57.375z"  horiz-adv-x="1024" />

    
    <glyph glyph-name="erji" unicode="&#58909;" d="M706.048-128c-22.528 0-43.52 9.216-59.392 25.6l-115.712 119.808L415.232-102.4c-7.68-7.68-16.896-14.336-26.624-18.432-10.24-4.608-21.504-7.168-32.768-6.656-22.528 0-43.52 9.216-59.392 25.088-7.68 7.68-13.824 17.408-17.92 27.136-4.096 10.752-6.656 22.016-6.656 33.28V204.8l40.448-29.184c64.512-46.592 140.288-71.168 218.624-71.168 78.336 0 154.112 24.576 218.624 71.168l40.448 29.184v-246.784c-0.512-47.616-37.888-86.016-83.968-86.016zM322.56 108.032v-150.528c0-5.12 1.024-9.728 2.56-13.824 1.536-4.096 4.096-8.192 7.168-11.264 6.144-6.144 14.336-9.728 23.04-9.728v-25.6 25.6c4.096 0 8.192 1.024 12.288 2.56 4.096 1.536 7.68 4.096 10.752 7.68l117.76 121.856c-60.928 4.608-119.808 23.04-173.568 53.248z m242.688-53.248l117.76-121.856c6.144-6.656 14.336-9.728 23.04-9.728 18.432 0 32.768 15.872 32.768 34.816v150.528c-53.76-30.72-112.64-49.152-173.568-53.76z m-34.304 58.88c-207.36 0-375.808 174.08-375.808 387.584 0 214.016 168.448 387.584 375.808 387.584s375.808-174.08 375.808-387.584-168.96-387.584-375.808-387.584z m0 724.48c-179.2 0-325.12-151.04-325.12-336.896s145.92-336.896 325.12-336.896 325.12 151.04 325.12 336.896c-0.512 185.856-145.92 336.896-325.12 336.896zM492.032 400.384h160.768v-59.904H403.456v44.544c28.672 43.008 61.952 77.824 99.328 105.472 53.248 39.936 77.312 69.12 73.216 88.576-1.024 29.696-16.384 44.544-46.08 44.544-30.72 1.024-49.664-18.432-56.832-58.368l-68.608 15.36c12.288 67.072 57.856 100.864 136.192 100.864 70.144-2.048 108.032-33.792 113.152-94.72 5.12-41.984-19.968-79.36-74.752-113.152-33.28-22.016-62.464-46.592-87.04-73.216z"  horiz-adv-x="1024" />

    
    <glyph glyph-name="sanji" unicode="&#58910;" d="M706.048-128c-22.528 0-43.52 9.216-59.392 25.6l-115.712 119.808L415.232-102.4c-7.68-7.68-16.896-14.336-26.624-18.432-10.24-4.608-21.504-7.168-32.768-6.656-22.528 0-43.52 9.216-59.392 25.088-7.68 7.68-13.824 17.408-17.92 27.136-4.096 10.752-6.656 22.016-6.656 33.28V204.8l40.448-29.184c64.512-46.592 140.288-71.168 218.624-71.168 78.336 0 154.112 24.576 218.624 71.168l40.448 29.184v-246.784c-0.512-47.616-37.888-86.016-83.968-86.016zM322.56 108.032v-150.528c0-5.12 1.024-9.728 2.56-13.824 1.536-4.096 4.096-8.192 7.168-11.264 6.144-6.144 14.336-9.728 23.04-9.728v-25.6 25.6c4.096 0 8.192 1.024 12.288 2.56 4.096 1.536 7.68 4.096 10.752 7.68l117.76 121.856c-60.928 4.608-119.808 23.04-173.568 53.248z m242.688-53.248l117.76-121.856c6.144-6.656 14.336-9.728 23.04-9.728 18.432 0 32.768 15.872 32.768 34.816v150.528c-53.76-30.72-112.64-49.152-173.568-53.76z m-34.304 58.88c-207.36 0-375.808 174.08-375.808 387.584 0 214.016 168.448 387.584 375.808 387.584s375.808-174.08 375.808-387.584-168.96-387.584-375.808-387.584z m0 724.48c-179.2 0-325.12-151.04-325.12-336.896s145.92-336.896 325.12-336.896 325.12 151.04 325.12 336.896c-0.512 185.856-145.92 336.896-325.12 336.896zM398.848 424.448L471.04 440.32c5.632-31.744 23.552-47.616 53.248-47.616 29.696 1.024 45.056 16.384 46.08 46.08 0 29.696-23.04 44.544-69.12 44.544h-28.672V536.576h27.136c41.984 0 63.488 13.824 63.488 41.984-1.024 26.624-14.336 40.448-40.448 40.448-27.136-2.048-43.52-17.408-50.176-46.08L404.48 585.728c14.336 55.808 55.808 83.968 123.904 84.992 66.048-2.048 101.888-29.184 106.496-81.92 1.024-39.424-21.504-65.024-67.584-76.288 46.08-7.68 71.168-33.792 74.752-77.824-4.096-58.368-44.544-88.576-122.368-90.624-65.024-3.072-105.472 23.552-120.832 80.384z"  horiz-adv-x="1024" />

    
    <glyph glyph-name="chongzhi" unicode="&#58958;" d="M403.64714667 848.86869333c-79.51701333-12.52465778-170.68487111-55.05024-233.01688889-108.06158222-66.99235555-57.96295111-124.66403555-150.00462222-148.54826667-237.67722666-9.90321778-36.70016-11.65084445-54.17642667-11.06830222-122.62513778 0-72.23523555 1.45635555-84.75989333 13.39847111-124.37276445 27.08821333-87.67260445 66.11854222-151.16970667 132.23708445-214.37553777 79.51701333-75.73048889 177.96664889-118.25607111 297.09653333-127.28547556 104.27505778-8.15559111 237.96849778 36.70016 320.68949333 107.18776889l17.47626667 15.14609777-45.14702223 0.58254223c-42.52558222 0-46.60337778-0.87381333-82.72099555-19.51516445-66.99235555-34.66126222-102.23616-43.10812445-185.24842667-43.10812444-83.59480889 0-114.17827555 6.40796445-178.84046222 36.99143111-109.80920889 52.72007111-184.37461333 140.39267555-219.90968889 259.52256-18.05880889 59.71057778-19.51516445 158.16021333-2.91271111 218.45333333C126.06577778 670.02823111 288.01251555 794.69226667 471.22204445 794.69226667c120.58624 0 220.49223111-41.94304 302.63068444-128.74183112 69.61379555-73.10904889 98.15836445-140.39267555 113.30446222-263.89162666l2.91271111-24.17550222h56.21532445l-3.49525334 39.03032888c-6.99050667 85.05116445-38.15651555 171.84995555-84.75989333 237.38595556-25.92312889 36.70016-85.05116445 95.24565333-120.29496889 118.83861334-36.70016 25.04931555-101.07107555 53.01134222-148.83953778 65.536-47.76846222 11.94211555-140.68394667 17.18499555-185.24842666 10.19448888z m0 0M327.04284445 589.3461333299999c-4.95160889-4.95160889-8.44686222-13.39847111-8.44686223-18.93262222 0-4.95160889 28.54456889-39.61287111 62.62328889-76.02176 34.66126222-36.70016 62.62328889-70.19633778 62.62328889-74.27413333 0-5.53415111-11.65084445-6.99050667-64.07964445-6.99050667-56.21532445 0-65.536-0.87381333-72.52650666-9.02940444-9.61194667-10.48576-10.48576-22.42787555-3.49525334-36.70016 4.95160889-8.44686222 11.06830222-9.61194667 72.52650667-9.61194667h67.57489778v-30.00092445h-61.74947555c-47.47719111 0-64.07964445-2.03889778-72.52650667-8.1555911-12.52465778-8.44686222-15.14609778-32.62236445-4.36906667-41.06922667 4.07779555-3.49525333 34.07872-6.40796445 71.65269334-6.99050667l64.66218666-1.45635556 1.45635556-46.60337777c0.87381333-41.94304 2.62144-46.60337778 13.1072-53.59388445 9.02940445-6.11669333 15.14609778-6.40796445 24.46677333-2.91271111 15.43736889 6.11669333 18.05880889 15.14609778 19.51516445 65.536l1.45635555 37.57397333 62.62328889 0.87381334c57.67168 0.58254222 63.20583111 1.45635555 71.07015111 11.65084444 11.65084445 14.56355555 11.65084445 18.05880889-3.49525333 32.62236445-11.65084445 11.94211555-15.14609778 12.52465778-72.52650667 12.52465777h-60.00184889V357.78560000000004H564.4288c64.66218667 0 65.24472889 0 73.69159111 13.1072 7.57304889 11.94211555 7.57304889 14.56355555 0.87381334 26.50567111-7.57304889 13.1072-8.15559111 13.1072-73.69159112 14.56355556-58.54549333 0.87381333-66.11854222 2.62144-66.11854222 9.90321778 0 4.36906667 27.08821333 36.99143111 60.00184889 72.23523555 47.47719111 50.68117333 60.00184889 66.99235555 60.00184889 78.06065778 0 17.47626667-8.15559111 25.92312889-24.46677334 25.92312889-9.90321778 0.58254222-25.63185778-13.1072-68.73998222-58.54549334l-55.63278222-58.54549333-41.94304 44.56448c-66.70108445 71.07015111-68.15744 72.52650667-81.26464 72.52650667-6.40796445 0.29127111-15.43736889-3.78652445-20.09770666-8.73813334z m408.94464-286.61077333c-34.66126222-36.70016-56.50659555-64.07964445-56.50659556-70.19633778 0-10.48576 19.51516445-33.49617778 82.13845333-98.74090667 31.16600889-32.03982222 48.64227555-39.03032889 62.04074667-25.63185777 13.1072 13.1072 6.11669333 29.41838222-24.17550222 61.16693333-16.60245333 17.47626667-30.00092445 33.20490667-30.00092445 34.66126222 0 2.03889778 51.55498667 3.49525333 114.17827556 3.49525334 119.71242667 0 126.12039111 0.87381333 126.12039111 22.42787555-0.58254222 24.46677333-2.03889778 25.04931555-126.12039111 27.67075556l-116.21717333 2.62144 31.16600888 33.20490667c16.89372445 18.64135111 31.16600889 36.99143111 31.16600889 41.65176888 0 16.60245333-9.90321778 27.96202667-24.17550222 27.96202667-10.48576-0.58254222-25.04931555-12.81592889-69.61379555-60.29312z m0 0"  horiz-adv-x="1024" />

    


  </font>
</defs>
</svg>
